<?xml version="1.0" encoding="UTF-8"?>
<svg id="Layer_1" data-name="Layer 1" xmlns="http://www.w3.org/2000/svg" viewBox="0 0 347.56 45.16">
  <defs>
    <style>
      .cls-1 {
        fill: #231f20;
      }
    </style>
  </defs>
  <g id="Text">
    <path class="cls-1" d="m40.59,0c1.02,0,1.97.22,2.85.65.88.43,1.63,1.02,2.23,1.75.6.73,1.03,1.57,1.3,2.51.26.94.28,1.92.06,2.94l-5.25,26.36c-.3,1.58-1.06,2.86-2.29,3.84-1.22.98-2.62,1.47-4.21,1.47H6.61c-1.05,0-2.02-.22-2.91-.65-.88-.43-1.62-1.02-2.2-1.75-.58-.73-1.01-1.58-1.27-2.54-.26-.96-.3-1.95-.11-2.96L5.42,5.31c.3-1.58,1.05-2.86,2.26-3.84,1.2-.98,2.6-1.47,4.18-1.47h28.73ZM9.49,9.2l6.6,1.98-3.5,17.55c-.08.41.02.78.28,1.1.26.32.6.48,1.02.48h23.76l-6.55-1.98,3.5-17.56c.07-.41-.02-.78-.28-1.1-.26-.32-.6-.48-1.02-.48H9.49Z"/>
    <path class="cls-1" d="m94.43,5.64l-6.77,33.87h-17.47l-5.37-26.8-5.37,26.8h-10.16l6.77-33.87h17.51l5.37,26.8,5.32-26.8h10.16Z"/>
    <path class="cls-1" d="m103.19,5.64h11.27l-5.18,25.98h21l-1.6,7.89h-32.27l6.77-33.87Z"/>
    <path class="cls-1" d="m179.23,9.2l6.61,1.98-3.5,17.55c-.08.41.02.78.28,1.1.26.32.6.48,1.02.48h15.47c.68,0,1.11-.36,1.3-1.07l.57-2.88h11.85l-1.58,7.85c-.3,1.58-1.05,2.86-2.26,3.84-1.2.98-2.6,1.47-4.18,1.47h-29.41c-.9,0-1.75-.19-2.54-.57-.79-.38-1.45-.89-1.98-1.55s-.9-1.4-1.13-2.23-.24-1.69-.06-2.6l5.48-27.26c.3-1.58,1.05-2.86,2.26-3.84,1.2-.98,2.6-1.47,4.18-1.47h28.73c1.02,0,1.97.22,2.85.65s1.63,1.02,2.23,1.75c.6.73,1.03,1.57,1.3,2.51s.28,1.92.06,2.94l-1.07,5.31h-11.85l.51-2.37c.08-.41-.02-.78-.28-1.1-.26-.32-.6-.48-1.02-.48h-23.82Z"/>
    <path class="cls-1" d="m245.73,29.93h-14.66l-1.94,9.58h-10.16l5.85-29.32c.26-1.35.91-2.45,1.96-3.29,1.05-.84,2.25-1.26,3.6-1.26h23.47c.9,0,1.73.19,2.49.56.76.37,1.39.87,1.89,1.5.5.63.86,1.35,1.09,2.15.23.81.24,1.65.05,2.52l-5.42,27.14h-10.16l1.93-9.58Zm-13.11-7.93h14.71l1.4-7.11c.07-.35-.02-.67-.24-.94-.23-.27-.51-.41-.87-.41h-12.34c-.65,0-1.02.31-1.11.92l-1.55,7.55Z"/>
    <path class="cls-1" d="m308.63,32.06l.53-2.71h10.16l-.19.92c-.07.36.02.67.24.94.22.27.51.41.87.41h12.14c.26,0,.49-.09.7-.27.21-.18.35-.4.41-.65l.68-3.39c.06-.35-.02-.67-.24-.94-.23-.27-.52-.41-.87-.41h-15.67c-.97,0-1.87-.21-2.71-.63-.84-.42-1.53-.97-2.08-1.65-.55-.68-.94-1.47-1.19-2.37-.24-.9-.27-1.84-.07-2.81l1.55-7.89c.29-1.45,1.01-2.64,2.15-3.58,1.14-.94,2.46-1.4,3.94-1.4h22.35c.97,0,1.87.21,2.71.63s1.53.97,2.08,1.64.95,1.46,1.21,2.35c.26.89.29,1.81.1,2.78l-.58,2.76h-10.16l.19-.92c.06-.35-.02-.67-.24-.94-.23-.27-.52-.41-.87-.41h-12.39c-.58,0-.95.31-1.11.92l-.53,2.81c-.06.36.02.67.24.94.23.27.51.41.87.41h15.19l.92.05c.93.07,1.78.31,2.54.75.76.43,1.4.99,1.91,1.67.51.68.89,1.44,1.11,2.3.23.86.24,1.75.05,2.68l-1.69,8.47c-.29,1.45-1.01,2.65-2.15,3.58-1.14.94-2.46,1.4-3.94,1.4h-22.11c-.97,0-1.87-.21-2.71-.63-.84-.42-1.53-.97-2.08-1.64-.55-.68-.94-1.47-1.19-2.37s-.27-1.84-.07-2.81Z"/>
    <polygon class="cls-1" points="159.97 0 146 18.08 139.81 5.64 129.07 5.64 139.81 25.97 137.25 39.51 148.28 39.51 150.79 25.97 172.09 0 159.97 0"/>
    <path class="cls-1" d="m306.31,9.85c-.23-.81-.59-1.52-1.09-2.15-.5-.63-1.13-1.13-1.89-1.5-.76-.37-1.59-.56-2.49-.56h-32.61l-1.58,7.89h27.99c.35,0,.64.14.85.41.21.27.28.59.22.94l-1.21,6.24c-.07.26-.19.47-.39.63-.23.16-.47.24-.73.24h-28.43l-3.5,17.51h10.16l1.93-9.58h12.39l4.31,9.58h.01l2.55,5.64h10.16l-6.86-15.22h2.18c1.35,0,2.55-.43,3.58-1.28,1.03-.85,1.68-1.94,1.93-3.27l2.61-13.02c.16-.87.13-1.71-.1-2.52Z"/>
  </g>
</svg>